<?xml version="1.0" standalone="no"?>
<!DOCTYPE svg PUBLIC "-//W3C//DTD SVG 20010904//EN"
 "http://www.w3.org/TR/2001/REC-SVG-20010904/DTD/svg10.dtd">
<svg version="1.0" xmlns="http://www.w3.org/2000/svg"
 width="2685.000000pt" height="2685.000000pt" viewBox="0 0 2685.000000 2685.000000"
 preserveAspectRatio="xMidYMid meet">
<metadata>
Created by potrace 1.14, written by Peter Selinger 2001-2017
</metadata>
<g transform="translate(0.000000,2685.000000) scale(0.100000,-0.100000)"
fill="#000000" stroke="none">
<path d="M13368 26060 c-165 -28 -296 -122 -401 -285 -39 -62 -613 -1204 -709
-1410 -20 -44 -54 -118 -76 -165 -22 -47 -111 -231 -199 -410 -185 -375 -245
-500 -373 -770 -51 -107 -127 -267 -170 -355 -42 -88 -105 -218 -139 -290 -34
-71 -68 -141 -76 -155 -7 -14 -49 -101 -93 -195 -381 -811 -496 -1026 -718
-1343 -148 -210 -189 -290 -216 -418 l-20 -99 6 -3250 c3 -1787 9 -3610 12
-4050 3 -455 2 -878 -4 -981 -10 -201 -15 -218 -111 -361 -22 -34 -41 -65 -41
-69 0 -10 -195 -298 -247 -365 -78 -100 -197 -243 -208 -251 -5 -4 -12 1 -15
10 -3 9 -3 951 0 2092 3 1141 2 2096 -2 2123 -7 50 -43 109 -86 142 -27 20
-113 32 -154 22 -13 -4 -47 -30 -76 -58 -40 -41 -52 -61 -57 -93 -3 -23 -6
-1074 -8 -2336 -2 -2222 -3 -2296 -21 -2330 -54 -101 -376 -520 -596 -775 -47
-55 -170 -206 -273 -335 -690 -867 -789 -986 -1153 -1375 -131 -141 -148 -161
-201 -240 -114 -169 -126 -221 -227 -940 -46 -322 -130 -862 -232 -1475 -41
-243 -46 -363 -20 -425 33 -77 88 -115 169 -115 80 0 184 47 364 166 105 69
188 119 423 254 317 183 444 280 507 388 60 101 89 193 268 846 142 515 185
608 361 776 110 105 192 157 789 500 233 134 252 146 550 342 244 160 271 176
288 159 9 -9 12 -168 13 -704 1 -804 -3 -766 92 -868 30 -33 96 -89 146 -124
154 -107 152 -102 197 -400 19 -128 87 -389 104 -401 21 -16 1222 -25 1247
-10 20 12 50 83 73 171 33 125 51 513 26 538 -9 9 -147 13 -564 15 -500 2
-553 4 -565 19 -9 13 -12 513 -11 2427 0 1326 4 2434 7 2461 l7 50 45 -3 c25
-2 48 -9 52 -15 4 -7 8 -1104 8 -2438 l0 -2427 23 -7 c31 -11 973 -18 992 -8
17 10 18 30 31 848 4 301 3 464 -5 515 -6 41 -12 135 -13 208 -3 130 -2 133
21 151 13 10 21 23 17 30 -4 6 -4 16 0 22 3 6 6 215 5 465 0 290 3 455 9 459
7 4 10 -153 11 -457 1 -486 1 -503 13 -515 14 -14 435 -18 1438 -13 940 5 998
6 1015 23 17 17 18 72 24 910 19 2644 22 3814 10 3952 -20 234 -96 477 -259
835 -43 95 -112 261 -112 270 0 5 -10 31 -21 57 -12 27 -25 57 -30 68 -4 11
-69 174 -143 363 -75 188 -136 345 -136 348 0 3 -6 20 -14 37 -8 18 -33 82
-56 142 -23 61 -50 132 -61 159 -10 27 -19 53 -19 58 0 6 -13 38 -29 72 -16
33 -54 113 -84 177 -89 189 -140 228 -281 214 -52 -4 -83 -13 -101 -27 -41
-32 -83 -129 -216 -498 -78 -216 -205 -554 -259 -685 -37 -92 -88 -220 -107
-270 -55 -143 -89 -232 -123 -315 -80 -198 -101 -245 -94 -210 3 19 10 39 15
44 5 6 9 23 9 38 0 16 6 41 14 56 8 15 37 92 66 172 61 174 78 219 137 375 71
189 86 230 152 400 34 88 77 203 96 255 39 110 87 243 139 385 51 140 104 249
135 279 39 38 103 56 193 56 97 0 133 -15 191 -80 54 -60 76 -103 152 -300 20
-52 41 -104 45 -115 24 -53 44 -107 67 -175 14 -41 36 -102 50 -135 23 -53 65
-171 150 -415 30 -86 178 -456 219 -545 15 -33 62 -145 104 -250 43 -104 105
-256 138 -338 67 -162 113 -305 133 -412 12 -58 14 -633 14 -3370 0 -2198 3
-3302 10 -3307 5 -4 229 -8 496 -8 411 0 488 2 499 14 9 11 11 563 10 2398 -1
1311 2 2405 6 2431 l7 48 -389 -3 -389 -3 -7 510 c-4 281 -12 686 -17 900 -13
462 -17 489 -111 690 -110 238 -441 1040 -547 1325 -84 229 -148 397 -266 700
-36 91 -88 229 -117 308 -83 227 -147 305 -298 365 -68 27 -89 31 -182 31
-100 1 -108 -1 -170 -32 -119 -61 -204 -165 -270 -332 -12 -30 -53 -138 -91
-240 -37 -102 -81 -216 -97 -255 -34 -81 -139 -332 -189 -455 -35 -84 -102
-255 -149 -378 -13 -34 -33 -81 -44 -103 -19 -36 -39 -88 -95 -244 -10 -27
-26 -68 -36 -90 -9 -23 -36 -98 -59 -168 -24 -70 -47 -127 -53 -127 -5 0 -6
10 -3 23 4 12 10 39 13 60 3 20 9 37 13 37 4 0 10 8 13 18 4 9 13 35 21 57 9
22 16 52 16 67 0 15 5 30 10 33 6 3 10 15 10 26 0 10 5 19 10 19 6 0 10 9 10
20 0 11 10 40 21 65 19 39 20 49 9 76 -10 23 -10 33 -1 42 8 8 11 8 11 -2 0
-7 4 -9 10 -6 6 4 5 11 -3 19 -6 8 -16 11 -21 8 -5 -3 -6 2 -3 12 4 10 7 27 8
39 0 21 1 21 10 2 7 -16 8 -14 8 15 -1 55 0 60 17 60 11 0 14 5 10 16 -3 9 -6
19 -6 22 0 4 -4 1 -9 -7 -15 -24 -34 25 -23 58 6 16 6 34 2 41 -5 7 -3 24 3
37 8 18 7 33 -2 58 -7 21 -9 42 -4 52 8 16 9 119 3 133 -5 11 -9 217 -15 810
-4 338 -8 662 -10 720 -1 58 -3 129 -4 159 -1 65 -13 61 -16 -6 -1 -28 -7 -49
-15 -51 -9 -3 -11 3 -7 24 3 15 3 33 0 40 -5 15 -42 7 -67 -15 -17 -15 -18
-15 -15 8 2 13 -2 26 -8 28 -7 3 -13 0 -13 -6 0 -6 -15 -11 -32 -11 l-33 1 24
13 24 14 -23 12 -24 13 27 13 c18 10 24 19 20 31 -6 15 -7 15 -18 -1 -15 -20
-33 -21 -37 0 -3 14 -6 14 -28 -3 -25 -20 -70 -36 -70 -26 0 9 50 53 61 53 14
0 11 15 -8 37 -10 11 -24 18 -30 16 -7 -3 -13 2 -13 11 0 9 -4 16 -10 16 -5 0
-10 9 -10 20 0 11 5 20 12 20 6 0 9 2 6 5 -10 10 -55 -13 -62 -31 -5 -13 0
-24 16 -36 23 -18 23 -18 -22 -17 -25 1 -37 3 -27 6 21 6 23 33 2 33 -9 0 -30
-7 -47 -16 -20 -10 -34 -12 -40 -6 -16 16 0 32 30 32 26 1 26 1 8 15 -27 20
-15 28 49 33 54 4 79 22 31 22 -38 0 -86 12 -86 21 0 5 8 9 18 10 14 0 14 2
-3 9 -22 10 -12 13 48 19 9 0 17 5 17 10 0 16 -40 23 -55 11 -8 -6 -19 -9 -25
-5 -6 4 -10 -6 -10 -24 0 -24 -4 -31 -20 -31 -22 0 -27 15 -7 24 6 3 0 4 -14
1 -23 -4 -26 -2 -22 18 3 13 -5 40 -16 60 -11 20 -16 37 -11 37 6 0 10 -4 10
-9 0 -5 12 -14 28 -19 15 -6 21 -11 15 -11 -21 -2 -14 -21 7 -21 11 0 20 5 20
11 0 5 6 7 13 3 6 -5 -2 6 -20 24 -17 18 -38 32 -46 32 -21 0 -31 32 -14 42 9
4 14 22 13 45 -1 35 -3 38 -33 41 -18 2 -33 7 -33 13 0 5 5 9 10 9 6 0 10 5
10 10 0 6 -11 10 -24 10 -20 0 -25 6 -31 40 -4 22 -11 42 -16 46 -12 7 -12 34
1 34 5 0 13 -15 18 -32 8 -29 10 -31 18 -14 5 13 3 21 -4 24 -7 2 -12 8 -12
14 0 6 -7 16 -15 22 -8 6 -17 30 -21 54 -6 36 -4 42 11 42 14 0 16 6 12 30 -4
16 -2 32 3 35 20 12 9 27 -15 23 -22 -5 -25 -2 -25 21 0 19 3 22 9 12 15 -24
26 56 12 86 -8 16 -8 28 -2 32 14 9 9 111 -6 111 -7 0 -13 5 -13 10 0 6 6 10
13 10 20 0 14 68 -7 83 -11 8 -16 27 -15 62 0 202 -1 231 -15 253 -4 7 -3 19
4 27 8 10 9 24 2 47 -5 18 -8 62 -7 98 5 89 -6 235 -16 219 -4 -8 -8 -171 -8
-364 -1 -192 -3 -1810 -5 -3595 l-5 -3245 -107 -3 c-65 -2 -111 1 -118 8 -5 5
-21 10 -35 10 -25 1 -25 1 -6 13 11 6 24 12 30 12 23 0 39 225 25 360 -15 153
-19 211 -25 320 -5 100 -16 162 -42 243 -16 51 -17 82 -3 82 14 0 13 57 -1 62
-13 4 -15 38 -6 115 3 32 2 55 -4 59 -6 4 -8 21 -4 40 5 29 3 34 -13 34 -21 0
-49 27 -38 37 3 3 15 -2 27 -12 17 -17 22 -17 30 -5 5 8 7 24 3 35 -3 11 -7
30 -9 42 -2 11 -6 30 -10 42 -4 12 -2 21 4 21 18 0 13 58 -6 69 -16 9 -16 13
-4 32 7 12 14 33 16 46 2 18 -3 23 -21 23 -29 0 -30 14 -4 47 15 20 17 29 9
39 -6 8 -14 12 -18 10 -3 -2 -14 1 -23 8 -16 12 -16 14 2 34 12 12 16 23 10
27 -6 4 -5 17 5 34 7 15 12 37 9 49 -4 14 0 22 15 27 12 3 21 15 21 26 0 10 5
19 10 19 6 0 10 13 10 29 0 39 18 49 23 14 4 -27 4 -27 3 2 -1 17 -6 30 -14
30 -19 0 -30 23 -24 51 6 35 22 40 23 7 1 -15 7 4 14 42 8 39 12 77 9 86 -3 9
2 24 11 32 8 9 10 17 5 19 -7 2 -7 52 0 148 6 93 6 148 0 154 -6 6 -9 28 -9
50 l2 41 8 -40 c4 -22 5 28 3 114 -3 85 -6 157 -7 160 0 3 2 31 6 61 4 30 3
91 -2 135 -6 49 -6 81 0 83 12 5 12 29 -1 34 -6 2 -10 80 -11 205 0 112 -5
205 -9 208 -5 3 -7 12 -4 20 3 7 -2 25 -11 39 -11 16 -13 26 -6 26 6 0 11 5
11 11 0 6 -9 9 -20 6 -28 -7 -44 16 -28 42 7 11 19 23 27 26 11 5 12 3 1 -10
-15 -18 -7 -30 15 -22 19 8 22 78 3 75 -7 -2 -13 4 -13 12 0 8 5 14 12 13 7
-2 10 4 6 12 -4 12 -9 13 -19 4 -8 -6 -14 -18 -14 -25 0 -8 -9 -14 -20 -14
-11 0 -20 4 -20 9 0 5 -3 16 -6 24 -3 9 3 17 18 21 l23 7 -22 11 c-13 6 -23
19 -23 29 0 10 -9 19 -22 21 -31 4 -34 26 -5 37 30 11 34 22 29 68 -3 21 -9
32 -16 30 -16 -7 -50 19 -37 28 6 3 11 1 11 -4 0 -6 5 -11 10 -11 21 0 9 36
-20 60 -18 15 -25 27 -18 31 6 4 11 38 12 75 1 54 4 69 16 70 42 3 43 3 30 19
-7 8 -21 15 -31 15 -14 0 -19 7 -19 30 0 17 3 30 8 30 4 0 13 9 20 20 10 16 9
25 -7 52 -14 21 -17 37 -11 48 5 9 7 55 5 103 -3 48 -1 87 4 87 4 0 6 13 3 30
-4 29 -4 30 40 30 25 0 47 3 51 6 10 10 -20 34 -42 34 -17 0 -21 6 -21 31 0
24 -4 30 -15 25 -8 -3 -15 -1 -15 4 0 6 9 10 20 10 23 0 27 28 5 36 -8 4 -15
14 -15 23 0 10 -3 12 -8 5 -5 -7 -14 -7 -29 1 l-23 12 30 22 c28 20 41 51 21
51 -5 0 -8 8 -7 18 1 13 -7 17 -29 17 -31 1 -49 30 -23 40 14 6 18 68 5 81 -4
4 -7 35 -7 68 0 34 -7 79 -14 101 -13 35 -12 42 1 58 14 15 15 25 4 72 -7 32
-18 55 -26 55 -7 0 -15 9 -18 20 -3 11 -14 20 -25 20 -20 0 -23 17 -9 53 16
40 17 50 6 63 -6 7 -17 10 -25 7 -11 -4 -14 2 -12 27 2 29 18 56 18 31 0 -19
18 -12 25 10 8 26 -12 51 -24 30 -7 -10 -14 -10 -40 3 -41 22 -39 30 6 23 35
-6 36 -6 15 9 -22 15 -30 44 -12 44 5 0 14 9 20 20 8 16 8 18 -4 14 -10 -4
-15 3 -18 23 -2 16 -8 27 -15 25 -7 -1 -13 5 -13 13 0 9 12 18 30 22 17 3 30
11 30 18 0 8 6 15 13 18 9 3 7 10 -5 23 -15 15 -18 16 -18 3 0 -20 -32 -49
-53 -49 -22 0 -22 16 -1 24 11 4 14 13 10 31 -5 18 -2 25 9 25 8 0 15 9 15 20
0 11 7 23 15 26 8 4 15 16 15 28 -1 19 -2 20 -14 4 -10 -13 -15 -15 -24 -6
-14 14 -16 65 -3 70 5 2 10 30 11 63 3 81 2 85 -15 85 -17 0 -20 16 -5 25 15
9 40 -20 40 -48 0 -31 10 -40 27 -25 7 6 14 9 16 7 28 -49 33 -68 24 -84 -12
-21 -17 -204 -5 -211 26 -16 49 171 35 286 -5 39 7 60 33 60 25 0 15 37 -14
52 -29 15 -29 14 -16 38 8 16 8 30 0 56 -9 25 -9 38 -1 48 8 10 7 22 -4 47
-11 26 -14 29 -15 13 0 -12 -7 -25 -16 -28 -10 -4 -13 -13 -9 -27 4 -11 4 -36
0 -55 -5 -27 -11 -34 -29 -34 -13 0 -31 9 -42 21 -16 17 -16 22 -4 29 20 13
30 12 30 0 0 -5 4 -10 10 -10 5 0 7 6 4 14 -3 8 -1 23 4 33 10 19 6 43 -8 43
-5 0 -10 -9 -12 -20 -2 -14 -7 -17 -18 -10 -10 6 -14 23 -12 57 2 26 3 73 3
103 -1 30 -1 68 -1 85 0 16 4 31 10 33 16 6 11 32 -6 32 -17 0 -17 11 2 121 5
29 2 41 -15 58 -25 25 -27 33 -6 25 10 -4 15 0 15 15 0 12 -6 21 -15 21 -8 0
-15 7 -15 16 0 13 3 14 14 5 18 -15 23 -2 18 45 -5 41 -22 46 -22 7 0 -21 -3
-24 -9 -14 -5 8 -6 24 -2 35 5 12 6 27 4 34 -3 6 2 12 10 12 9 0 14 11 14 30
0 18 -6 30 -13 30 -22 0 -28 22 -10 36 13 9 14 13 4 17 -10 4 -10 8 2 16 13 9
13 14 1 32 -11 19 -11 23 3 31 17 9 13 61 -7 86 -8 10 -7 16 3 22 11 7 12 14
2 35 -11 24 -11 27 3 22 11 -5 15 0 15 18 0 14 -4 25 -10 25 -5 0 -10 16 -10
35 0 19 5 35 11 35 15 0 8 71 -9 92 -12 14 -11 18 4 26 19 11 26 105 10 134
-6 11 -6 21 1 30 6 8 9 79 8 185 -2 137 0 175 11 184 10 8 11 15 4 24 -12 15
-22 52 -20 75 0 8 1 28 1 45 0 16 4 46 9 67 8 29 14 36 28 31 14 -6 15 -4 4 9
-14 17 -1 35 17 23 6 -3 14 2 19 12 9 14 13 15 26 4 11 -9 25 -11 43 -5 38 11
42 12 86 13 21 0 36 5 33 10 -9 15 121 32 214 29 77 -3 86 -5 95 -25 10 -23
25 -31 25 -14 0 4 12 8 28 8 15 1 47 4 72 7 201 28 4134 46 4161 19 11 -11 12
-1750 3 -6138 -2 -1056 -4 -3099 -5 -4540 0 -1441 -4 -2722 -8 -2847 -6 -198
-9 -230 -24 -245 -16 -17 -60 -18 -552 -23 -419 -4 -537 -8 -547 -18 -18 -18
-27 -194 -18 -374 6 -141 8 -149 41 -214 59 -118 -1 -109 682 -112 326 -1 602
0 615 3 17 4 32 24 53 70 44 98 72 232 104 500 23 195 15 180 138 250 124 70
188 128 224 205 l26 55 2 716 c1 393 5 721 9 727 10 17 21 15 53 -12 15 -13
64 -44 108 -68 44 -25 98 -55 120 -68 22 -13 87 -51 145 -83 183 -104 202
-116 325 -192 66 -42 152 -94 190 -116 132 -78 300 -182 473 -293 276 -178
440 -343 531 -537 79 -169 110 -274 186 -629 85 -399 153 -619 225 -733 38
-61 76 -87 343 -235 299 -166 384 -218 545 -330 182 -126 265 -166 357 -170
80 -4 113 12 169 81 50 62 48 139 -18 657 -31 239 -69 552 -86 695 -72 607
-165 1199 -209 1329 -57 167 -113 248 -316 456 -198 203 -281 293 -388 420
-91 108 -189 220 -296 335 -26 28 -89 100 -141 160 -75 88 -208 238 -275 311
-154 168 -354 399 -488 562 -93 114 -238 286 -323 382 -232 266 -250 293 -264
387 -6 43 -10 913 -10 2353 l0 2286 -22 44 c-32 64 -76 90 -150 90 -96 0 -175
-57 -206 -149 -9 -25 -12 -499 -12 -1836 0 -1626 -8 -2337 -27 -2368 -12 -19
-68 53 -189 247 -58 93 -244 373 -334 503 l-63 92 14 128 c12 108 14 754 14
4213 0 3182 -3 4100 -12 4154 -17 93 -66 191 -193 381 -96 143 -152 236 -245
400 -75 134 -271 532 -349 710 -114 260 -104 236 -187 415 -39 85 -96 213
-126 285 -49 115 -92 210 -250 545 -25 52 -80 176 -123 275 -43 99 -125 282
-182 405 -58 124 -122 263 -143 310 -21 47 -77 171 -126 277 -49 105 -107 236
-130 290 -23 54 -49 116 -59 138 -10 22 -32 74 -50 115 -62 145 -443 896 -494
975 -114 174 -228 261 -381 290 -83 16 -105 17 -177 5z m841 -1308 c27 -38
191 -396 191 -417 0 -2 11 -29 25 -59 14 -30 25 -58 25 -61 0 -6 57 -141 135
-320 24 -55 73 -172 108 -260 36 -88 120 -286 187 -440 67 -154 125 -287 128
-295 3 -8 13 -33 22 -55 10 -22 37 -85 60 -140 23 -55 69 -160 101 -233 33
-74 59 -136 59 -139 0 -2 10 -28 23 -56 13 -29 38 -86 55 -127 17 -41 86 -202
152 -357 66 -155 120 -285 120 -288 0 -24 137 -280 195 -366 97 -142 97 -141
44 -195 -37 -38 -49 -44 -84 -44 -23 0 -55 9 -75 21 -89 55 -205 206 -281 369
-54 113 -54 113 -92 205 -19 44 -75 175 -124 290 -109 253 -154 359 -203 485
-21 52 -88 213 -149 357 -61 144 -111 264 -111 266 0 6 -91 227 -209 507 -43
102 -104 253 -136 335 -32 83 -89 227 -127 320 -193 471 -229 567 -235 613 -6
50 -5 50 37 81 34 24 53 31 91 31 41 0 50 -4 68 -28z m1878 -4144 c11 -12 10
-22 -8 -66 -12 -28 -30 -54 -40 -57 -10 -3 -1213 -6 -2674 -7 -2358 0 -2659 1
-2672 15 -19 18 -9 89 14 109 13 11 411 13 2152 15 1175 2 2190 4 2256 6 66 2
309 2 539 1 339 -2 422 -5 433 -16z m-5471 -460 c11 -17 4 -8141 -6 -8152 -13
-13 -106 -20 -114 -8 -3 5 -6 1840 -7 4076 -1 3179 2 4070 11 4081 15 18 105
20 116 3z m5692 -1 c12 -14 20 -8123 8 -8134 -13 -13 -76 27 -93 59 -17 31
-18 107 -24 1238 -11 2067 -10 6809 1 6831 8 14 21 19 54 19 24 0 48 -6 54
-13z m-5252 -2257 c21 0 24 -4 24 -39 0 -22 5 -41 13 -44 9 -4 9 -7 0 -17 -10
-11 -14 -10 -19 3 -3 9 -12 17 -20 17 -8 0 -14 5 -14 10 0 6 -6 10 -14 10 -8
0 -17 11 -20 25 -4 14 -12 25 -19 25 -6 1 -1 7 13 15 14 7 27 9 28 4 2 -5 15
-9 28 -9z m581 -112 c-3 -7 -5 -2 -5 12 0 14 2 19 5 13 2 -7 2 -19 0 -25z
m-650 -100 c-3 -7 -5 -2 -5 12 0 14 2 19 5 13 2 -7 2 -19 0 -25z m-2 -348 c3
-5 -1 -10 -10 -10 -9 0 -13 5 -10 10 3 6 8 10 10 10 2 0 7 -4 10 -10z m5 -140
c0 -21 -15 -27 -25 -10 -7 12 2 30 16 30 5 0 9 -9 9 -20z m690 -70 c0 -11 -7
-20 -15 -20 -15 0 -21 21 -8 33 12 13 23 7 23 -13z m2 -50 c-10 -12 -18 -16
-21 -9 -2 6 3 15 10 20 24 15 29 10 11 -11z m58 -5 c0 -2 -11 -16 -25 -30 -14
-14 -28 -25 -30 -25 -11 0 -4 25 13 41 16 16 42 25 42 14z m-40 -101 c0 -3 -7
-12 -15 -21 -20 -19 -32 -10 -14 11 14 15 29 21 29 10z m-626 -56 c-8 -29 -5
-26 -34 -31 -14 -2 -19 -2 -12 0 6 3 12 12 12 22 0 21 9 31 27 31 10 0 12 -7
7 -22z m606 -74 c0 -14 -3 -14 -15 -4 -8 7 -15 14 -15 16 0 2 7 4 15 4 8 0 15
-7 15 -16z m120 -59 c0 -45 -3 -53 -16 -48 -9 3 -14 13 -11 24 4 14 0 19 -14
19 -10 0 -19 -4 -19 -10 0 -5 -4 -10 -10 -10 -31 0 20 78 53 79 14 1 17 -8 17
-54z m-61 -84 c-15 -5 -22 6 -14 19 6 9 10 9 16 -1 5 -8 4 -15 -2 -18z m181
-37 c0 -8 -4 -12 -10 -9 -5 3 -10 10 -10 16 0 5 5 9 10 9 6 0 10 -7 10 -16z
m100 6 c0 -5 -4 -10 -10 -10 -5 0 -10 5 -10 10 0 6 5 10 10 10 6 0 10 -4 10
-10z m-300 -20 c0 -11 -4 -20 -9 -20 -14 0 -23 18 -16 30 10 17 25 11 25 -10z
m-42 -55 c-3 -3 -9 2 -12 12 -6 14 -5 15 5 6 7 -7 10 -15 7 -18z m252 -85 c0
-5 -5 -10 -11 -10 -5 0 -7 5 -4 10 3 6 8 10 11 10 2 0 4 -4 4 -10z m311 -33
c-8 -8 -11 -7 -11 4 0 9 3 19 7 23 4 4 9 2 11 -4 3 -7 -1 -17 -7 -23z m-121
-31 c0 -8 -3 -22 -6 -30 -5 -13 -9 -14 -20 -5 -21 18 -17 49 6 49 11 0 20 -6
20 -14z m165 -28 c-2 -24 -4 -51 -4 -60 -1 -26 -21 -22 -22 5 -1 21 -1 21 -9
-3 -8 -24 -8 -24 -9 -2 -1 12 -1 25 -1 30 0 4 6 7 13 7 8 0 11 12 9 33 -2 23
1 32 12 32 11 0 13 -10 11 -42z m-65 2 c0 -13 -7 -20 -20 -20 -13 0 -20 7 -20
20 0 13 7 20 20 20 13 0 20 -7 20 -20z m57 -192 c-3 -7 -5 -2 -5 12 0 14 2 19
5 13 2 -7 2 -19 0 -25z m1262 -731 c17 -34 44 -98 60 -142 17 -44 57 -154 91
-245 34 -91 68 -185 77 -210 8 -25 18 -49 22 -55 4 -5 18 -37 30 -70 20 -54
33 -85 76 -190 7 -16 16 -41 20 -55 4 -14 16 -43 26 -65 10 -22 34 -82 54
-134 19 -52 42 -108 49 -125 8 -17 38 -92 67 -166 29 -74 65 -163 81 -198 15
-34 28 -65 28 -67 0 -3 17 -42 39 -87 21 -46 45 -99 54 -118 8 -19 26 -60 39
-90 22 -48 44 -111 78 -225 24 -82 30 -166 32 -470 2 -391 -10 -3424 -16
-3835 -4 -277 -5 -287 -30 -353 -44 -117 -104 -172 -218 -203 -62 -16 -284
-19 -293 -4 -6 10 27 13 110 11 54 -2 69 10 61 45 -8 33 -8 39 -3 74 2 14 -2
36 -9 50 -14 25 -18 17 -15 -27 1 -11 -3 -24 -8 -28 -6 -3 -11 1 -11 11 0 16
-1 16 -20 -1 -19 -17 -21 -17 -58 9 -21 14 -50 26 -65 26 -16 0 -30 8 -37 21
-9 15 -15 18 -24 9 -8 -5 -20 -8 -28 -5 -8 3 -21 -1 -28 -10 -7 -8 -22 -15
-34 -15 -26 0 -84 45 -73 57 5 4 13 0 18 -10 13 -22 53 -22 75 0 17 17 14 18
-57 25 -52 4 -76 3 -82 -5 -6 -9 -10 -9 -14 1 -2 6 -14 12 -25 12 -18 0 -19 2
-7 16 12 14 10 19 -14 38 -23 19 -35 21 -77 16 -47 -6 -50 -5 -44 14 7 21 7
21 -15 1 -13 -11 -21 -29 -20 -45 2 -46 -1 -60 -15 -60 -9 0 -13 -8 -9 -22 4
-19 3 -20 -6 -7 -7 11 -12 220 -16 605 -2 324 -8 920 -11 1324 -4 404 -6 786
-5 849 2 125 -3 151 -25 151 -8 0 -12 5 -9 10 4 6 11 8 16 5 10 -7 11 -5 15
45 2 26 -3 39 -19 52 -20 15 -20 17 -4 23 13 6 17 18 15 59 -1 51 -2 51 -5 8
-3 -28 -8 -42 -16 -39 -17 6 -10 79 9 93 7 6 14 17 14 24 0 9 -3 10 -13 1 -19
-15 -28 -3 -22 28 l5 26 -11 -25 c-12 -27 -13 -115 -3 -197 5 -39 3 -53 -6
-53 -7 0 -18 -8 -25 -17 -11 -15 -13 -15 -25 6 -8 16 -9 26 -2 33 8 8 0 18
-24 34 -43 29 -42 29 -46 2 -2 -13 -9 -23 -17 -23 -23 0 -23 19 -1 45 39 44
21 97 -29 87 -29 -6 -31 -5 -25 17 3 13 0 34 -6 46 -9 16 -9 25 -1 33 6 6 11
19 11 29 0 25 -87 108 -116 110 -19 2 -23 7 -18 21 4 13 2 17 -5 13 -12 -8
-51 10 -51 24 0 6 14 10 30 10 29 0 30 2 30 45 l0 45 -40 0 c-29 0 -40 -4 -40
-15 0 -8 -9 -15 -20 -15 -15 0 -22 9 -27 31 -4 19 -14 34 -25 37 -12 3 -17 10
-13 21 6 21 -49 65 -71 57 -8 -3 -17 1 -20 9 -4 8 -14 15 -23 15 -9 0 -22 5
-29 12 -9 9 -12 5 -12 -19 0 -18 5 -35 11 -39 8 -4 8 -9 0 -17 -6 -6 -11 -23
-11 -37 0 -23 -4 -27 -31 -28 -36 -1 -66 -22 -33 -22 19 -1 19 -1 0 -15 -11
-8 -18 -16 -15 -18 64 -49 65 -52 14 -31 -12 5 -15 -3 -17 -37 l-1 -44 -6 50
c-5 41 -8 46 -14 28 -14 -38 -28 -26 -25 20 2 34 6 41 21 39 9 -2 17 2 17 8 0
5 -7 10 -16 10 -9 0 -14 7 -12 18 1 9 -2 23 -6 31 -5 8 -8 37 -7 64 1 27 -3
55 -9 62 -7 8 -9 24 -6 37 l6 23 -12 -23 c-9 -18 -9 -31 0 -54 6 -17 8 -36 5
-42 -4 -6 -10 -45 -14 -86 -3 -41 -7 123 -7 365 -2 515 1 534 103 800 43 110
64 171 111 310 25 72 49 139 54 150 12 25 40 99 90 235 21 58 47 126 57 150
11 25 29 70 41 100 151 397 300 761 351 860 16 30 36 82 46 115 19 65 118 277
141 300 23 22 39 9 73 -58z m-2339 -21 c0 -8 6 -16 13 -19 6 -2 9 -8 4 -12 -4
-5 -14 0 -22 11 -17 23 -19 34 -5 34 6 0 10 -6 10 -14z m110 -492 c0 -22 -2
-25 -15 -14 -12 10 -13 16 -4 26 16 20 19 18 19 -12z m990 -670 c0 -8 -4 -12
-10 -9 -5 3 -10 10 -10 16 0 5 5 9 10 9 6 0 10 -7 10 -16z m-40 -230 c0 -8 -5
-12 -10 -9 -6 4 -8 11 -5 16 9 14 15 11 15 -7z m227 -321 c-13 -42 -44 -124
-50 -130 -12 -12 -7 31 9 72 8 22 17 48 21 58 3 9 10 17 15 17 6 0 8 -8 5 -17z
m-1177 -153 c0 -5 -4 -10 -10 -10 -5 0 -10 5 -10 10 0 6 5 10 10 10 6 0 10 -4
10 -10z m820 -27 c-11 -17 -11 -17 -6 0 3 10 6 24 7 30 0 9 2 9 5 0 3 -7 0
-20 -6 -30z m295 10 c-3 -15 -22 -68 -42 -117 -38 -100 -60 -134 -48 -76 6 31
18 60 72 188 16 39 28 42 18 5z m-316 -77 c-9 -8 -10 -7 -5 7 3 10 7 24 7 30
1 7 3 4 6 -7 3 -10 -1 -23 -8 -30z m-849 18 c0 -8 -4 -12 -10 -9 -5 3 -10 10
-10 16 0 5 5 9 10 9 6 0 10 -7 10 -16z m4 -110 c25 -10 19 -34 -8 -34 -27 0
-41 14 -31 30 7 12 17 12 39 4z m1039 -146 c-14 -40 -41 -125 -59 -188 -31
-104 -34 -109 -29 -58 7 76 91 318 111 318 1 0 -9 -33 -23 -72z m-1103 -260
c0 -16 -3 -19 -11 -11 -6 6 -8 16 -5 22 11 17 16 13 16 -11z m1007 -95 c-3
-10 -5 -4 -5 12 0 17 2 24 5 18 2 -7 2 -21 0 -30z m-10 -196 c-2 -23 -3 -1 -3
48 0 50 1 68 3 42 2 -26 2 -67 0 -90z m3 -267 c0 -5 -4 -10 -10 -10 -5 0 -10
5 -10 10 0 6 5 10 10 10 6 0 10 -4 10 -10z m-1 -147 c2 -113 -15 -829 -34
-1463 -16 -541 -20 -860 -18 -1293 2 -235 -1 -336 -8 -331 -8 4 -9 240 -5 778
6 797 9 964 27 1396 6 140 13 427 16 637 3 211 9 381 13 378 4 -3 8 -49 9
-102z m506 -133 c-10 -11 -22 -17 -27 -14 -12 8 11 34 30 34 13 0 12 -3 -3
-20z m29 -71 c-7 -11 -34 -12 -34 -1 0 14 11 21 26 15 8 -3 11 -9 8 -14z m86
-13 c0 -3 -4 -8 -10 -11 -5 -3 -10 -1 -10 4 0 6 5 11 10 11 6 0 10 -2 10 -4z
m-343 -68 c-3 -7 -5 -2 -5 12 0 14 2 19 5 13 2 -7 2 -19 0 -25z m85 -90 c-4
-17 -6 -18 -13 -5 -11 19 0 55 11 37 4 -7 5 -21 2 -32z m478 -33 c0 -16 -6
-25 -15 -25 -15 0 -21 31 -8 43 13 14 23 6 23 -18z m-563 -107 c-2 -18 -4 -6
-4 27 0 33 2 48 4 33 2 -15 2 -42 0 -60z m3793 -29 c22 -28 43 -63 48 -77 8
-32 9 -1244 1 -3372 -6 -1692 -2 -1603 -61 -1624 -20 -7 -31 -6 -44 5 -16 13
-16 49 -10 499 8 656 10 3943 1 4307 -4 161 -4 297 0 303 11 18 24 11 65 -41z
m-5645 -2414 c4 -1342 8 -2494 8 -2560 2 -119 2 -120 -21 -123 -38 -6 -109 75
-116 130 -3 24 -8 1110 -11 2413 -5 1859 -4 2381 6 2420 18 72 100 188 119
169 4 -5 11 -1107 15 -2449z m2435 2426 c0 -5 -7 -11 -14 -14 -10 -4 -13 -1
-9 9 6 15 23 19 23 5z m219 -280 c0 -14 -3 -20 -6 -13 -2 6 -11 12 -19 12 -16
0 -16 2 -8 24 9 23 34 7 33 -23z m3454 -395 c9 9 47 -6 47 -18 0 -6 -7 -16
-16 -22 -9 -7 -12 -18 -8 -29 8 -23 21 -22 29 2 6 21 28 19 53 -6 7 -7 20 -13
28 -13 8 0 14 -7 14 -15 0 -8 11 -17 25 -21 14 -3 32 -19 41 -35 8 -17 19 -27
25 -23 6 4 6 11 -2 20 -6 8 -9 17 -5 21 3 3 6 1 6 -5 0 -7 7 -12 15 -12 9 0
21 -11 27 -25 6 -14 15 -25 19 -25 4 0 32 -34 63 -75 31 -41 81 -96 111 -122
30 -26 55 -54 55 -60 0 -7 5 -13 10 -13 6 0 1 -9 -10 -20 -22 -22 -26 -40 -9
-40 6 0 4 -7 -5 -15 -20 -21 -46 -19 -46 3 0 22 -19 42 -40 42 -9 0 -24 14
-33 30 -10 17 -23 30 -28 30 -6 0 -19 10 -30 23 -15 17 -20 19 -27 9 -7 -11
-10 -9 -15 7 -2 11 -22 28 -43 38 -29 13 -42 28 -50 53 -6 19 -17 35 -23 36
-6 2 -7 0 -1 -3 5 -2 10 -12 10 -21 0 -15 -2 -15 -10 -2 -7 11 -10 7 -10 -17
0 -26 4 -33 20 -33 11 0 20 -4 20 -10 0 -5 9 -10 20 -10 13 0 20 -7 20 -20 0
-11 -9 -25 -20 -32 -21 -13 -28 -48 -10 -48 6 0 10 -4 10 -9 0 -5 -9 -7 -20
-4 -15 4 -20 14 -20 37 0 35 -15 56 -41 56 -20 0 -45 55 -40 89 2 20 -1 23
-18 18 -22 -5 -27 2 -12 19 5 5 5 30 -2 61 l-11 53 -38 -6 c-26 -5 -38 -3 -38
5 0 7 -4 9 -10 6 -6 -3 -7 1 -4 10 4 8 1 29 -6 45 -15 37 -4 116 14 101 7 -6
15 -8 19 -5z m207 -100 c0 -3 -4 -8 -10 -11 -5 -3 -10 -1 -10 4 0 6 5 11 10
11 6 0 10 -2 10 -4z m-210 -91 c11 -20 11 -27 0 -40 -10 -13 -9 -15 9 -15 16
0 21 -6 21 -25 0 -24 -24 -44 -37 -32 -3 4 -9 23 -14 44 -4 21 -11 50 -15 66
-8 35 17 37 36 2z m170 -261 c0 -7 -27 -34 -35 -34 -3 0 -1 9 5 20 10 18 30
28 30 14z m416 -71 c-7 -7 -26 7 -26 19 0 6 6 6 15 -2 9 -7 13 -15 11 -17z
m-33 -29 c1 -10 6 -24 9 -30 5 -7 -1 -10 -16 -7 -21 4 -23 7 -13 34 12 31 15
32 20 3z m-5133 -1379 c0 -8 -2 -15 -4 -15 -2 0 -6 7 -10 15 -3 8 -1 15 4 15
6 0 10 -7 10 -15z m1390 -495 c0 -5 -4 -10 -10 -10 -5 0 -10 5 -10 10 0 6 5
10 10 10 6 0 10 -4 10 -10z m-70 -30 c0 -5 -4 -10 -10 -10 -5 0 -10 5 -10 10
0 6 5 10 10 10 6 0 10 -4 10 -10z m-83 -256 c-3 -3 -12 -4 -19 -1 -8 3 -5 6 6
6 11 1 17 -2 13 -5z m426 -1 c-7 -2 -19 -2 -25 0 -7 3 -2 5 12 5 14 0 19 -2
13 -5z"/>
<path d="M12626 12419 c-8 -43 -8 -59 3 -59 5 0 11 20 13 45 4 51 -6 60 -16
14z"/>
<path d="M12660 12354 c0 -8 -4 -13 -8 -10 -4 2 -13 -4 -20 -15 -11 -17 -9
-21 13 -29 15 -6 33 -10 42 -10 14 0 14 2 -2 20 -10 11 -15 28 -12 40 3 11 1
20 -4 20 -5 0 -9 -7 -9 -16z"/>
<path d="M12721 12307 c-15 -38 -15 -37 19 -37 31 0 40 13 16 27 -7 4 -15 15
-18 23 -4 11 -9 7 -17 -13z"/>
<path d="M12560 12268 c0 -24 3 -29 9 -18 6 8 7 18 4 23 -3 5 1 13 8 18 11 7
10 9 -3 9 -14 0 -18 -8 -18 -32z"/>
<path d="M12542 12240 c0 -14 2 -19 5 -12 2 6 2 18 0 25 -3 6 -5 1 -5 -13z"/>
<path d="M12830 12248 c0 -7 5 -20 10 -28 9 -13 11 -13 20 0 5 8 8 20 7 25 -5
15 -37 18 -37 3z"/>
<path d="M12603 12200 c-1 -11 2 -20 8 -20 5 0 9 9 9 20 0 11 -4 20 -8 20 -4
0 -8 -9 -9 -20z"/>
<path d="M12880 12175 c0 -8 -4 -15 -10 -15 -5 0 -10 -7 -10 -15 0 -19 11 -19
35 -1 11 8 16 19 12 30 -8 20 -27 21 -27 1z"/>
<path d="M13280 11896 c0 -9 5 -16 10 -16 6 0 10 4 10 9 0 6 -4 13 -10 16 -5
3 -10 -1 -10 -9z"/>
<path d="M13106 11821 c-4 -7 -5 -15 -2 -18 9 -9 19 4 14 18 -4 11 -6 11 -12
0z"/>
<path d="M13216 11791 c-4 -7 -5 -15 -2 -18 9 -9 19 4 14 18 -4 11 -6 11 -12
0z"/>
<path d="M13200 11736 c0 -15 27 -29 34 -18 3 5 -4 13 -15 20 -15 10 -19 10
-19 -2z"/>
<path d="M13255 11620 c-7 -12 2 -30 16 -30 5 0 9 9 9 20 0 21 -15 27 -25 10z"/>
<path d="M16720 10980 c0 -5 5 -10 11 -10 5 0 7 5 4 10 -3 6 -8 10 -11 10 -2
0 -4 -4 -4 -10z"/>
<path d="M17010 10870 c0 -5 5 -10 11 -10 5 0 7 5 4 10 -3 6 -8 10 -11 10 -2
0 -4 -4 -4 -10z"/>
<path d="M16860 10861 c0 -5 7 -11 14 -14 10 -4 13 -1 9 9 -6 15 -23 19 -23 5z"/>
<path d="M17040 10815 c0 -8 -6 -15 -12 -15 -8 -1 -6 -6 4 -14 10 -7 14 -17
10 -22 -4 -5 2 -1 14 8 16 14 23 15 33 5 11 -10 11 -8 2 10 -15 30 -51 50 -51
28z"/>
<path d="M16950 10790 c-13 -9 -13 -11 0 -20 8 -5 26 -9 40 -8 24 1 24 1 -2 5
-18 3 -25 9 -21 19 6 16 3 17 -17 4z"/>
<path d="M16870 10761 c0 -6 4 -13 10 -16 6 -3 7 1 4 9 -7 18 -14 21 -14 7z"/>
<path d="M17175 10680 c3 -5 8 -10 11 -10 2 0 4 5 4 10 0 6 -5 10 -11 10 -5 0
-7 -4 -4 -10z"/>
<path d="M11100 18570 c0 -5 5 -10 10 -10 6 0 10 5 10 10 0 6 -4 10 -10 10 -5
0 -10 -4 -10 -10z"/>
<path d="M11034 18509 c1 -16 6 -30 11 -31 14 -4 13 50 -1 56 -7 3 -11 -7 -10
-25z"/>
<path d="M11109 18405 c-4 -28 -7 -30 -39 -27 -33 3 -34 3 -15 -12 21 -16 61
-21 67 -8 2 4 1 23 -2 42 l-6 35 -5 -30z"/>
<path d="M11089 18228 c0 -2 -2 -16 -4 -31 -2 -16 -9 -34 -15 -41 -7 -10 -6
-19 7 -35 23 -27 41 -16 43 29 4 63 0 80 -15 80 -8 0 -15 -1 -16 -2z"/>
<path d="M11036 18116 c2 -16 4 -32 4 -37 0 -5 7 -9 15 -9 19 0 20 26 1 33 -8
3 -16 14 -19 24 -2 10 -3 5 -1 -11z"/>
<path d="M11037 17658 c-2 -7 -1 -22 3 -33 7 -19 7 -19 19 3 12 22 8 42 -9 42
-4 0 -10 -6 -13 -12z"/>
<path d="M11750 17501 c0 -6 4 -13 10 -16 6 -3 7 1 4 9 -7 18 -14 21 -14 7z"/>
<path d="M11106 17414 c-10 -25 -7 -84 4 -84 6 0 10 23 10 50 0 52 -4 61 -14
34z"/>
<path d="M11053 17370 c0 -25 2 -35 4 -22 2 12 2 32 0 45 -2 12 -4 2 -4 -23z"/>
<path d="M7930 17279 c-11 -26 -21 -34 -41 -34 -14 -1 -36 -11 -50 -24 -36
-34 -79 -63 -79 -54 -1 4 -10 -3 -21 -16 -11 -13 -22 -21 -26 -18 -3 4 -23 -9
-44 -28 -21 -19 -51 -38 -66 -41 -16 -4 -34 -16 -41 -26 -7 -10 -17 -18 -23
-18 -5 0 -25 -14 -43 -30 -18 -17 -54 -44 -78 -59 -25 -16 -60 -44 -79 -63
-37 -36 -92 -64 -108 -54 -5 4 -14 -1 -19 -10 -8 -14 -12 -14 -33 -3 -13 8
-27 18 -31 24 -4 5 -10 7 -13 3 -10 -10 139 -156 168 -163 50 -13 112 37 359
287 250 254 292 303 286 339 -3 20 -5 19 -18 -12z"/>
<path d="M11096 17240 c6 -64 5 -70 -12 -71 -16 0 -16 -2 4 -9 26 -11 30 -55
7 -86 -19 -25 -19 -25 11 -65 l26 -34 -5 46 c-4 29 -2 50 5 57 9 9 9 12 -1 12
-9 0 -11 26 -9 110 3 101 1 110 -15 110 -17 0 -18 -7 -11 -70z"/>
<path d="M19988 17152 c-57 -54 -127 -120 -157 -147 -87 -82 -111 -105 -111
-109 0 -18 -177 -176 -198 -176 -5 0 -12 -7 -16 -15 -7 -18 -42 -20 -50 -2 -4
6 -4 2 -2 -10 2 -13 0 -23 -5 -23 -5 0 -9 6 -9 13 0 6 -10 12 -22 13 -13 0
-31 4 -42 9 -16 7 -17 5 -8 -12 6 -11 27 -32 47 -47 46 -35 67 -31 142 33 55
45 450 449 483 493 8 11 25 31 38 45 22 26 26 33 17 33 -3 0 -51 -44 -107 -98z"/>
<path d="M11950 16917 c0 -7 5 -18 10 -23 14 -14 3 -42 -18 -47 -10 -3 3 -5
28 -5 25 0 37 2 28 5 -13 3 -18 15 -18 44 0 28 -4 39 -15 39 -8 0 -15 -6 -15
-13z"/>
<path d="M12030 16890 c0 -5 5 -10 10 -10 6 0 10 5 10 10 0 6 -4 10 -10 10 -5
0 -10 -4 -10 -10z"/>
<path d="M12090 16880 c-13 -8 -12 -10 3 -10 9 0 17 5 17 10 0 12 -1 12 -20 0z"/>
<path d="M12000 16751 c0 -15 28 -33 40 -26 8 5 8 11 -1 21 -13 15 -39 19 -39
5z"/>
<path d="M11171 16704 c0 -11 3 -14 6 -6 3 7 2 16 -1 19 -3 4 -6 -2 -5 -13z"/>
<path d="M12220 16685 c7 -8 16 -12 21 -9 13 8 1 24 -18 24 -13 0 -13 -3 -3
-15z"/>
<path d="M12160 16679 c0 -5 5 -7 10 -4 6 3 10 8 10 11 0 2 -4 4 -10 4 -5 0
-10 -5 -10 -11z"/>
<path d="M12287 16663 c-10 -10 -8 -51 3 -58 5 -3 9 9 8 30 -1 38 -1 38 -11
28z"/>
<path d="M12160 16620 c0 -5 5 -10 11 -10 5 0 7 5 4 10 -3 6 -8 10 -11 10 -2
0 -4 -4 -4 -10z"/>
<path d="M12225 16620 c-3 -5 -1 -10 4 -10 6 0 11 5 11 10 0 6 -2 10 -4 10 -3
0 -8 -4 -11 -10z"/>
<path d="M12245 16580 c-3 -5 -1 -10 4 -10 6 0 11 5 11 10 0 6 -2 10 -4 10 -3
0 -8 -4 -11 -10z"/>
<path d="M11207 16504 c-11 -12 -8 -23 13 -44 21 -21 40 -26 40 -11 0 16 -45
63 -53 55z"/>
<path d="M11275 16397 c-4 -10 -5 -21 -1 -24 10 -10 18 4 13 24 -4 17 -4 17
-12 0z"/>
<path d="M11280 16350 c0 -5 5 -10 10 -10 6 0 10 5 10 10 0 6 -4 10 -10 10 -5
0 -10 -4 -10 -10z"/>
<path d="M11289 16300 c-5 -41 -5 -71 1 -75 11 -7 20 58 9 70 -5 5 -9 7 -10 5z"/>
<path d="M7332 16230 c-42 -10 -86 -51 -112 -104 -19 -40 -19 -95 -25 -2976
-3 -1614 -7 -2982 -8 -3040 -2 -124 13 -165 76 -211 80 -58 176 -29 241 72 15
25 17 239 16 3067 0 3270 2 3090 -48 3145 -35 40 -92 58 -140 47z"/>
<path d="M19470 16224 c-77 -34 -105 -78 -113 -184 -4 -41 -8 -1411 -9 -3045
-3 -2500 -1 -2974 11 -2995 19 -36 72 -89 103 -106 57 -30 139 -11 192 45 l26
28 2 1494 c3 2449 -3 4539 -13 4618 -10 83 -25 113 -72 141 -38 24 -79 25
-127 4z"/>
<path d="M11285 16108 c-4 -10 -4 -26 0 -35 8 -17 8 -17 12 0 3 9 3 25 0 35
-4 16 -4 16 -12 0z"/>
<path d="M11217 16013 c-15 -14 -7 -43 12 -43 20 0 35 25 25 41 -6 11 -28 12
-37 2z"/>
<path d="M11274 15914 c3 -9 6 -18 6 -20 0 -3 5 -2 10 1 16 10 12 35 -6 35
-11 0 -14 -5 -10 -16z"/>
<path d="M11226 15815 c-3 -9 0 -15 9 -15 8 0 15 7 15 15 0 8 -4 15 -9 15 -5
0 -11 -7 -15 -15z"/>
<path d="M11206 15591 c-9 -13 4 -41 18 -41 21 0 25 11 13 31 -13 21 -23 24
-31 10z"/>
<path d="M11265 15470 c-3 -5 -1 -10 4 -10 6 0 11 5 11 10 0 6 -2 10 -4 10 -3
0 -8 -4 -11 -10z"/>
<path d="M11271 15361 c-8 -6 -9 -11 -3 -15 6 -3 14 -1 17 5 9 14 2 20 -14 10z"/>
<path d="M6285 13824 c-46 -25 -104 -84 -114 -118 -6 -19 -11 -601 -13 -1541
-3 -1423 -2 -1512 15 -1542 35 -64 168 -131 236 -118 80 15 150 69 185 145 21
45 21 45 23 1450 1 773 3 1440 5 1482 3 76 2 78 -38 135 -57 81 -117 117 -203
120 -47 2 -75 -1 -96 -13z"/>
<path d="M11275 13199 c-4 -6 -4 -13 -1 -16 3 -4 6 -1 6 6 0 7 5 9 10 6 6 -3
10 -1 10 4 0 14 -17 14 -25 0z"/>
<path d="M11257 13163 c-13 -12 -7 -33 8 -33 8 0 15 9 15 20 0 20 -11 26 -23
13z"/>
<path d="M8089 12775 c-5 -429 -2 -483 27 -522 40 -54 94 -83 165 -89 76 -8
103 3 165 63 44 43 73 97 85 158 5 22 5 195 1 385 -6 337 -17 379 -22 90 -3
-120 -4 -127 -10 -63 -6 68 -20 113 -20 64 0 -14 -4 -20 -11 -15 -7 4 -9 0 -5
-13 10 -31 -3 -55 -26 -47 -11 3 -28 7 -36 8 -9 2 -18 8 -20 14 -5 16 -22 15
-22 -1 0 -7 9 -18 20 -25 11 -7 20 -17 20 -22 0 -14 -28 -12 -32 2 -6 18 -77
-18 -89 -46 -12 -26 -54 -33 -63 -10 -8 22 -28 6 -21 -17 4 -11 2 -19 -4 -19
-6 0 -11 5 -11 10 0 6 -7 10 -15 10 -8 0 -15 9 -15 21 0 11 -4 17 -10 14 -6
-4 -10 5 -10 19 0 14 -4 26 -10 26 -6 0 -10 40 -11 98 -1 53 -4 138 -8 187 -5
63 -9 -22 -12 -280z m229 -77 c-3 -7 -13 -15 -23 -16 -15 -4 -16 -2 -4 12 17
19 32 21 27 4z"/>
<path d="M8160 12725 c0 -15 4 -24 10 -20 6 3 10 12 10 20 0 8 -4 17 -10 20
-6 4 -10 -5 -10 -20z"/>
<path d="M20721 12125 c-2 -16 -4 -42 -5 -57 -1 -15 -7 -33 -14 -40 -9 -9 -12
-6 -12 14 0 34 -19 47 -27 19 -10 -38 -25 -10 -17 32 6 38 5 40 -10 27 -10 -7
-15 -22 -13 -32 3 -11 0 -18 -9 -18 -8 0 -13 -9 -11 -22 1 -16 -3 -23 -15 -22
-12 1 -17 -5 -15 -20 1 -15 -4 -21 -18 -21 -15 0 -21 8 -23 33 -2 17 -7 32
-12 32 -11 0 -31 -60 -24 -71 3 -5 1 -9 -4 -9 -8 0 -39 99 -34 113 1 4 -2 7
-7 7 -5 0 -13 -9 -16 -21 -5 -16 -12 -19 -31 -15 -16 4 -24 2 -25 -6 0 -7 -4
-4 -9 7 -7 17 -9 16 -10 -10 -1 -26 -3 -28 -11 -10 -5 13 -8 -46 -6 -160 3
-200 7 -217 72 -274 41 -35 61 -39 138 -26 47 8 119 70 150 130 19 35 22 60
25 210 4 159 -1 288 -7 210z"/>
<path d="M21394 11825 c6 -16 -22 -35 -41 -28 -7 3 -13 -3 -13 -12 0 -9 5 -13
11 -9 8 4 9 -1 3 -17 -11 -32 -7 -120 6 -133 12 -12 13 -29 1 -22 -14 9 -19
-42 -18 -193 l2 -144 -35 -34 c-19 -18 -43 -33 -54 -33 -10 0 -57 -9 -104 -21
-47 -11 -126 -22 -174 -24 -96 -4 -198 -23 -198 -37 0 -4 -7 -8 -15 -8 -8 0
-15 -4 -15 -8 0 -25 81 -121 249 -293 103 -107 215 -225 248 -264 82 -95 138
-139 167 -131 28 7 126 102 429 418 177 186 237 254 237 272 0 15 -20 48 -48
83 -46 55 -233 234 -252 241 -5 2 -28 29 -52 60 -75 100 -198 243 -236 275
-20 18 -48 42 -62 55 -29 25 -45 29 -36 7z"/>
<path d="M18683 11530 c0 -36 2 -50 4 -32 2 17 2 47 0 65 -2 17 -4 3 -4 -33z"/>
<path d="M5183 11499 c-14 -5 -24 -20 -28 -43 -4 -19 -15 -43 -25 -54 -10 -10
-26 -43 -35 -73 -9 -30 -22 -67 -28 -84 -5 -16 -10 -42 -10 -58 0 -21 -3 -25
-12 -17 -9 8 -14 7 -17 -2 -3 -9 -14 -3 -31 17 -25 27 -24 24 9 -40 60 -116
116 -192 155 -214 41 -24 88 -27 111 -8 14 10 103 118 220 265 97 121 198 292
160 268 -6 -3 -12 -1 -14 4 -4 13 -150 29 -279 31 -52 1 -107 5 -124 9 -17 4
-41 3 -52 -1z"/>
<path d="M18718 11438 c-5 -181 -5 -181 -18 -173 -5 3 -10 43 -10 87 0 134
-10 81 -14 -73 -5 -171 -3 -159 -17 -159 -5 0 -7 5 -3 12 5 7 2 9 -8 5 -9 -3
-20 -1 -26 5 -8 8 -13 6 -18 -6 -4 -10 0 -24 9 -33 13 -13 11 -18 -22 -48 -20
-17 -46 -37 -58 -44 -21 -11 -22 -10 -17 19 4 18 2 30 -4 30 -6 0 -18 3 -27 6
-13 5 -16 1 -13 -22 3 -24 -1 -29 -19 -28 -27 1 -31 -13 -5 -19 14 -4 14 -5
-3 -6 -27 -1 -101 44 -86 53 8 5 8 13 -1 29 -7 12 -11 25 -10 29 1 4 -5 5 -13
2 -8 -4 -13 -10 -10 -14 3 -5 1 -11 -4 -14 -5 -3 -8 16 -6 44 1 28 -1 50 -6
50 -5 0 -9 19 -9 43 -1 32 -3 38 -11 25 -6 -11 -6 -38 0 -75 5 -32 7 -61 4
-66 -2 -4 8 -27 23 -51 64 -101 240 -137 317 -65 18 16 42 39 55 50 27 26 32
60 5 38 -13 -11 -15 -11 -9 -1 4 7 8 51 8 98 0 46 4 84 9 84 5 0 9 -27 9 -60
0 -33 4 -60 10 -60 6 0 10 67 10 180 0 99 -2 180 -5 180 -3 0 -6 -24 -7 -52z"/>
<path d="M18643 11304 c-3 -8 -1 -20 6 -27 8 -8 11 -4 11 16 0 30 -7 35 -17
11z"/>
<path d="M18323 11177 c3 -35 27 -78 27 -49 0 7 8 12 18 10 13 -2 16 3 14 22
-1 14 -5 32 -8 40 -4 13 -7 12 -16 -3 -9 -18 -10 -18 -24 0 -13 16 -14 14 -11
-20z"/>
<path d="M18617 11204 c-4 -4 -7 -14 -7 -23 0 -11 3 -12 11 -4 6 6 10 16 7 23
-2 6 -7 8 -11 4z"/>
<path d="M18551 11096 c-9 -11 -9 -16 0 -21 10 -7 28 10 29 28 0 12 -17 8 -29
-7z"/>
<path d="M12203 7763 c-34 -3 -44 -8 -48 -26 -2 -12 -6 -299 -8 -637 -2 -338
-7 -623 -12 -633 -7 -16 55 -17 1259 -15 l1267 3 -1 649 c0 505 -3 652 -13
658 -12 7 -2360 8 -2444 1z"/>
<path d="M12817 6270 c-77 -14 -118 -78 -119 -185 0 -90 26 -145 87 -186 74
-50 119 -54 620 -53 485 0 528 4 615 47 67 34 100 103 100 209 0 68 -3 84 -27
119 -17 25 -36 42 -52 45 -42 7 -1183 11 -1224 4z"/>
<path d="M13417 5728 c-3 -40 -11 -134 -17 -208 -9 -94 -9 -149 -2 -180 l10
-45 2 60 c2 33 5 50 7 38 4 -22 23 -33 23 -13 0 5 7 7 15 4 12 -5 15 6 15 62
0 38 -5 110 -11 159 -6 50 -12 108 -14 130 -3 59 -4 65 -14 65 -4 0 -11 -33
-14 -72z"/>
<path d="M10833 5523 c-50 -5 -52 -12 -27 -94 26 -87 52 -137 76 -151 27 -14
776 -31 899 -20 l74 7 21 42 c26 48 59 176 51 196 -3 8 -20 17 -37 21 -34 6
-983 5 -1057 -1z"/>
<path d="M14948 5521 c-26 -4 -50 -10 -54 -14 -12 -11 13 -126 38 -176 20 -40
28 -47 63 -53 22 -5 241 -11 486 -14 l447 -7 25 25 c28 28 65 120 74 183 4 35
2 43 -13 50 -23 11 -1000 16 -1066 6z"/>
<path d="M10928 5203 c-21 -2 -38 -9 -38 -15 0 -5 11 -53 26 -106 40 -154 16
-144 366 -154 350 -9 484 -4 498 22 28 53 64 210 55 240 -6 20 -14 20 -438 18
-238 -1 -449 -3 -469 -5z"/>
<path d="M15130 5203 c-94 -2 -157 -8 -161 -14 -7 -11 21 -124 49 -199 12 -31
25 -46 42 -51 32 -9 692 -11 753 -3 55 8 65 23 96 158 16 67 18 92 10 102 -11
14 -301 16 -789 7z"/>
<path d="M15252 4873 c-143 -3 -184 -6 -188 -17 -6 -15 21 -156 37 -197 6 -17
21 -29 37 -33 15 -3 144 -9 287 -12 317 -8 334 -5 363 64 29 69 55 169 49 187
-7 16 -44 16 -585 8z"/>
<path d="M10994 4828 c12 -75 48 -179 67 -188 47 -25 329 -36 549 -21 89 6 96
8 107 32 18 36 46 186 39 204 -5 13 -55 15 -387 15 l-382 0 7 -42z"/>
<path d="M11070 4553 c0 -43 55 -185 86 -221 32 -37 35 -39 128 -50 116 -15
301 -16 326 -2 10 6 25 33 33 62 27 96 48 208 42 218 -4 6 -116 10 -311 10
-279 0 -304 -1 -304 -17z"/>
<path d="M15123 4554 c-3 -8 4 -47 16 -87 12 -40 26 -88 32 -107 23 -77 16
-75 250 -78 163 -3 213 -1 226 9 28 24 109 240 99 266 -8 21 -615 18 -623 -3z"/>
<path d="M11196 4234 c-3 -8 1 -34 8 -57 8 -23 28 -89 46 -146 37 -117 84
-181 134 -181 67 0 141 62 165 138 24 80 52 214 47 227 -6 16 -65 23 -253 30
-119 3 -142 2 -147 -11z"/>
<path d="M15224 4229 c-7 -12 8 -89 33 -174 38 -123 74 -171 142 -186 90 -20
129 30 200 263 30 96 30 94 -40 102 -104 10 -327 7 -335 -5z"/>
<path d="M13862 4084 c-2 -27 -6 -31 -28 -31 -15 0 -30 -7 -35 -14 -7 -11 -9
-11 -9 2 0 9 -6 19 -13 22 -19 7 -68 -4 -61 -14 10 -17 -5 -9 -25 12 l-19 21
-12 -22 c-10 -18 -14 -20 -21 -9 -6 10 -10 9 -15 -6 -13 -34 -128 -209 -149
-227 -11 -10 -26 -17 -33 -18 -31 0 -75 46 -109 116 -20 40 -40 71 -44 68 -4
-2 -18 9 -30 26 -21 28 -24 29 -40 14 -10 -9 -33 -17 -51 -17 -19 -1 -36 -8
-39 -17 -4 -9 -19 -15 -40 -15 -33 0 -34 -1 -41 -54 -3 -29 -12 -57 -19 -61
-19 -12 -3 -282 27 -458 39 -231 41 -240 78 -377 20 -71 47 -173 61 -225 62
-230 230 -703 248 -697 5 1 17 27 27 57 9 30 24 69 32 85 37 71 209 592 253
765 33 131 92 462 110 617 16 133 18 298 5 418 -4 39 -8 56 -8 39z"/>
<path d="M13206 4053 c-6 -14 -5 -15 5 -6 7 7 10 15 7 18 -3 3 -9 -2 -12 -12z"/>
<path d="M14347 3113 c-2 -5 -12 -42 -22 -83 -10 -41 -21 -84 -26 -95 -4 -11
-15 -40 -23 -65 -8 -25 -18 -54 -22 -65 l-7 -20 17 20 c17 20 17 20 10 -5 -4
-13 -13 -30 -21 -38 -7 -8 -11 -23 -8 -33 5 -15 3 -17 -10 -13 -14 6 -15 1
-10 -30 4 -21 3 -41 -3 -49 -8 -10 -6 -13 8 -14 15 -1 22 8 30 40 5 23 14 56
19 72 6 17 13 48 16 70 4 22 11 52 16 66 10 26 48 249 43 249 -2 0 -5 -3 -7
-7z"/>
<path d="M13942 3051 c-7 -21 -12 -45 -12 -54 0 -8 -4 -17 -8 -19 -4 -1 -23
-41 -41 -88 -19 -47 -40 -98 -47 -115 -6 -16 -31 -75 -54 -130 -23 -55 -61
-146 -86 -201 -24 -56 -44 -104 -44 -108 0 -3 -31 -70 -69 -149 -65 -135 -72
-144 -115 -167 l-45 -24 -26 24 c-60 56 -140 228 -227 485 -33 99 -69 198 -79
220 l-19 40 -72 0 c-40 0 -83 3 -95 7 -24 8 -43 -9 -24 -21 6 -4 9 -15 5 -24
-3 -9 -10 -14 -15 -11 -5 3 -9 1 -9 -5 0 -5 5 -13 10 -16 6 -3 10 -14 9 -23 0
-14 -2 -13 -9 3 -13 30 -12 14 4 -62 8 -37 28 -97 44 -133 16 -36 35 -87 42
-115 7 -27 22 -70 33 -95 32 -76 35 -83 57 -155 12 -38 25 -78 31 -87 5 -10 9
-25 9 -33 0 -8 4 -23 9 -33 5 -9 23 -69 41 -132 17 -63 56 -203 85 -310 30
-107 63 -244 74 -305 11 -60 30 -157 41 -215 12 -58 33 -177 49 -265 15 -88
30 -155 33 -150 3 6 8 33 12 60 15 107 67 374 91 460 14 50 43 158 66 240 44
160 70 244 166 530 34 99 75 223 92 275 34 106 142 418 160 465 13 32 61 211
61 227 0 5 -4 6 -10 3 -6 -4 -9 10 -8 35 1 22 5 43 10 46 4 3 8 13 8 22 0 14
-5 12 -23 -8 -43 -48 -79 -25 -45 30 9 14 9 24 1 42 -7 13 -14 32 -16 43 -3
15 -5 12 -6 -7 -1 -19 -6 -28 -17 -28 -13 0 -15 7 -10 35 9 47 2 45 -12 -4z"/>
<path d="M12530 2933 c-1 -145 151 -647 233 -772 13 -20 29 -51 35 -69 6 -18
18 -42 27 -55 16 -21 16 -21 9 18 -3 22 -11 45 -16 52 -5 7 -5 14 1 17 5 3 12
0 14 -6 3 -7 6 1 6 17 1 39 -63 252 -124 415 -46 120 -89 236 -123 329 -8 25
-17 40 -20 33 -6 -18 -22 -14 -22 6 0 9 -5 24 -10 32 -7 11 -10 7 -10 -17z"/>
<path d="M14082 2940 c-14 -23 -16 -70 -3 -70 9 0 27 78 19 85 -2 2 -9 -5 -16
-15z"/>
<path d="M12831 2754 c0 -11 3 -14 6 -6 3 7 2 16 -1 19 -3 4 -6 -2 -5 -13z"/>
</g>
</svg>
